<svg xmlns="http://www.w3.org/2000/svg" width="90" height="30" viewBox="0 0 90 30" fill="none">
    <g clip-path="url(#clip0_1700_1793)">
      <path d="M80.4975 5.65062C80.1074 6.97915 80.3135 8.26181 80.9739 8.51796C81.6344 8.77411 82.4733 7.89479 82.8634 6.56626C83.2534 5.23772 83.0473 3.95507 82.3869 3.69892C81.7264 3.44277 80.8893 4.32209 80.4975 5.65062Z" fill="#39B54A"/>
      <path d="M89.9999 5.34091C89.9999 5.34091 85.4502 3.52302 80.93 12.2225C80.93 12.2225 78.3378 5.92394 75.9277 6.22405C75.9277 6.22405 79.4232 11.8479 79.7912 14.3979C79.7912 14.3979 77.05 23.9557 76.5367 26.8077L76.3527 27.7081C76.3527 27.7081 81.1728 11.5477 90.0017 5.34282" fill="#39B54A"/>
      <path d="M71.1317 27.3219C68.2666 27.3219 66.8341 23.4548 66.8341 15.7207C66.8341 13.1566 66.9831 10.1944 67.2811 6.83384C66.6838 6.83462 66.0868 6.86844 65.4929 6.93515C64.8545 7.02499 64.47 7.07087 64.3431 7.07087C64.2476 7.07893 64.152 7.05858 64.0673 7.0122C63.9826 6.96582 63.9123 6.89533 63.8648 6.80899C63.7726 6.64811 63.7231 6.46476 63.7213 6.27757C63.7151 6.13257 63.7607 5.99032 63.8493 5.87813C63.938 5.76593 64.0633 5.6917 64.2014 5.6697C64.7975 5.51167 65.8725 5.42183 67.4265 5.40017C67.4915 4.68142 67.5663 3.95057 67.6509 3.20761C67.7037 2.69786 68.2041 2.43916 69.1522 2.43152C70.3333 2.43152 70.9238 2.76285 70.9238 3.42553C70.9238 3.6957 70.8705 4.37621 70.7638 5.46707C71.9253 5.55755 73.1659 5.7092 74.4856 5.92202C74.7726 5.96535 74.9161 6.15651 74.9161 6.49549C74.9133 6.69207 74.8523 6.88298 74.7413 7.0422C74.6818 7.12866 74.6021 7.19803 74.5098 7.24383C74.4174 7.28963 74.3154 7.31036 74.2133 7.30408C74.0689 7.29626 73.9251 7.27903 73.7828 7.25247C72.7402 7.07379 71.6896 6.95002 70.635 6.88163C70.1873 11.6376 69.9635 15.4938 69.9635 18.4504C69.9635 23.2611 70.6381 25.6672 71.9872 25.6684C72.414 25.6684 72.7783 25.439 73.0818 24.9764C73.3568 24.5774 73.5646 24.1327 73.6963 23.6613C73.7386 23.5275 73.8674 23.4587 74.079 23.4587C74.2897 23.4599 74.4954 23.5265 74.6695 23.6498C74.7348 23.6813 74.7904 23.7311 74.83 23.7936C74.8697 23.856 74.8918 23.9287 74.894 24.0035C74.8559 24.2631 74.775 24.5141 74.6548 24.7451C73.9005 26.4694 72.7243 27.3302 71.1262 27.3277" fill="#2C3233"/>
      <path d="M60.7689 4.52279C60.5478 4.52542 60.3286 4.48021 60.1253 4.39004C59.9219 4.29986 59.7389 4.1667 59.5878 3.99903C59.2701 3.65396 59.0928 3.19485 59.0928 2.71733C59.0928 2.23981 59.2701 1.7807 59.5878 1.43563C59.7407 1.2705 59.9241 1.13915 60.1271 1.04942C60.33 0.9597 60.5483 0.913452 60.7689 0.913452C60.9894 0.913452 61.2077 0.9597 61.4107 1.04942C61.6136 1.13915 61.797 1.2705 61.95 1.43563C62.2677 1.7807 62.445 2.23981 62.445 2.71733C62.445 3.19485 62.2677 3.65396 61.95 3.99903C61.7989 4.1667 61.6158 4.29986 61.4125 4.39004C61.2091 4.48021 60.9899 4.52542 60.7689 4.52279ZM60.7689 26.5975C60.3766 26.6035 59.9884 26.5138 59.6356 26.3356C59.4861 26.2766 59.3572 26.172 59.2659 26.0356C59.1747 25.8991 59.1252 25.7371 59.1241 25.571V7.64437C59.1234 7.44644 59.1661 7.25095 59.249 7.07274C59.3318 6.89453 59.4527 6.73831 59.6025 6.61595C59.9343 6.34242 60.3453 6.19355 60.7689 6.19355C61.1924 6.19355 61.6035 6.34242 61.9353 6.61595C62.0853 6.73802 62.2064 6.89419 62.2893 7.07246C62.3723 7.25073 62.4148 7.44637 62.4136 7.64437V25.5691C62.4123 25.7352 62.3627 25.897 62.2715 26.0334C62.1802 26.1698 62.0515 26.2745 61.9021 26.3337C61.5494 26.5121 61.1612 26.6018 60.7689 26.5956" fill="#2C3233"/>
      <path d="M48.1087 27.3391C46.8004 27.3429 45.5151 26.9818 44.387 26.2935C43.3234 25.6336 42.4301 24.7153 41.7837 23.6173C40.7437 21.916 40.2236 19.7611 40.2236 17.1524C40.236 14.2343 40.6701 11.3346 41.5114 8.5504C41.9152 7.14045 42.4836 5.78719 43.204 4.52083C44.1521 2.92405 45.1848 1.77138 46.3021 1.06283C47.4195 0.354275 48.527 0 49.6247 0C51.6374 0 53.2987 0.961513 54.6085 2.88454C55.5677 4.27743 56.1269 6.13802 56.2864 8.4663C56.3085 8.73582 56.3177 9.01682 56.3177 9.30929C56.3177 9.73748 56.0362 9.94966 55.4714 9.94966C55.2622 9.95325 55.0575 9.88617 54.8882 9.7585C54.8105 9.70406 54.7462 9.63141 54.7005 9.54641C54.6548 9.4614 54.629 9.36643 54.6251 9.26915C54.4963 6.26672 53.7193 4.0576 52.2942 2.64177C51.741 2.09124 51.1768 1.81598 50.6016 1.81598C49.8142 1.81598 49.0476 2.17599 48.3019 2.89601C46.7798 4.35134 45.6355 6.59551 44.869 9.62852C44.2273 12.0584 43.8891 14.564 43.8626 17.0836C43.8626 20.6812 44.8316 23.2299 46.7694 24.7298C47.3985 25.2277 48.1679 25.4965 48.9587 25.4945C50.0251 25.5182 51.0616 25.1276 51.8655 24.3991C53.027 23.3656 53.7672 21.8536 54.0861 19.863C54.0984 19.7636 54.1321 19.6684 54.1847 19.5844C54.2372 19.5003 54.3073 19.4296 54.3896 19.3775C54.5534 19.2655 54.7455 19.207 54.9415 19.2093C55.5168 19.2093 55.8044 19.4737 55.8044 20.0025C55.8047 20.2978 55.7726 20.5922 55.7087 20.88C55.25 22.7686 54.4086 24.2583 53.1846 25.3492C51.7856 26.633 49.9826 27.3402 48.1161 27.3372" fill="#2C3233"/>
      <path d="M32.0207 2.90561C32.014 2.70649 32.0558 2.50884 32.1424 2.33103C32.2289 2.15323 32.3573 2.00105 32.5156 1.88866C32.8597 1.63633 33.3564 1.50635 34.004 1.50635C34.7816 1.50635 35.3997 1.66501 35.8584 1.98233C36.0177 2.08054 36.1493 2.22056 36.24 2.38832C36.3308 2.55608 36.3775 2.74568 36.3754 2.93811C36.3754 3.37267 36.1215 3.73586 35.6137 4.02769C35.0947 4.3008 34.5173 4.43236 33.9359 4.41001C33.4797 4.4116 33.0306 4.29183 32.6315 4.0621C32.4331 3.95122 32.2698 3.783 32.1614 3.57777C32.053 3.37254 32.0042 3.13908 32.0207 2.90561ZM32.3666 3.0203C32.3646 3.18851 32.4093 3.35374 32.4955 3.49616C32.5816 3.63858 32.7055 3.75213 32.8523 3.82316C33.1845 4.01111 33.5577 4.10721 33.9359 4.10224C34.484 4.12321 35.0286 4.00373 35.5218 3.75434C35.8897 3.54917 36.0737 3.31341 36.0737 3.04707C36.0714 2.93402 36.0303 2.82554 35.9578 2.74122C35.7952 2.56489 35.5928 2.43349 35.3691 2.3589C34.9298 2.20498 34.4673 2.13504 34.004 2.15246C33.5618 2.13167 33.1222 2.23186 32.729 2.44301C32.6233 2.49515 32.5334 2.57666 32.4695 2.67855C32.4055 2.78043 32.3699 2.89871 32.3666 3.0203Z" fill="#39B54A"/>
      <path d="M31.9806 8.15856C31.9785 8.07879 32.0025 8.00064 32.0487 7.93682C32.0671 7.90865 32.0917 7.88545 32.1205 7.86916C32.1493 7.85287 32.1815 7.84395 32.2142 7.84316H35.9783C35.9783 7.74567 36.0151 7.69788 36.0887 7.69788C36.1623 7.69788 36.1752 7.73229 36.1991 7.8011C36.2652 8.04525 36.3077 8.29562 36.326 8.54852C36.3478 8.7542 36.3589 8.96095 36.3592 9.16787C36.3564 9.54467 36.3194 9.92036 36.2488 10.2899C36.2359 10.3607 36.2028 10.3951 36.1494 10.3951H36.109C36.0821 10.3918 36.0575 10.3782 36.0398 10.357C36.0221 10.3358 36.0126 10.3085 36.0133 10.2804C36.0154 10.2354 36.021 10.1907 36.0299 10.1466C36.0914 9.82486 36.1235 9.49779 36.1255 9.16978C36.1247 8.93578 36.1093 8.70209 36.0795 8.47015C36.0685 8.47015 35.6545 8.47015 34.834 8.47015C34.863 8.70471 34.8778 8.94094 34.8782 9.17743C34.8778 9.42004 34.8593 9.66225 34.823 9.9019C34.823 9.9344 34.8027 9.9516 34.777 9.95543H34.7236C34.6427 9.95543 34.6022 9.91719 34.6022 9.84073C34.6022 9.82353 34.6022 9.74707 34.6225 9.61135C34.6427 9.47563 34.6427 9.32844 34.6427 9.1736C34.6423 8.93578 34.627 8.69823 34.5967 8.4625H32.2142C32.1816 8.46207 32.1495 8.45352 32.1207 8.43755C32.0919 8.42159 32.0672 8.39868 32.0487 8.37075C32.0028 8.31046 31.9787 8.23538 31.9806 8.15856Z" fill="#39B54A"/>
      <path d="M32.0889 15.8143C32.0889 15.5945 32.1404 15.4836 32.2434 15.4836H36.0645C36.0568 15.2356 36.0328 14.9885 35.9928 14.7438C35.9854 14.6926 35.9811 14.6408 35.9799 14.589C35.9798 14.5748 35.9836 14.5608 35.9907 14.5486C35.9979 14.5364 36.0081 14.5266 36.0204 14.5202C36.0475 14.5031 36.0788 14.4945 36.1105 14.4953C36.1213 14.494 36.1322 14.495 36.1427 14.4981C36.1531 14.5013 36.1628 14.5066 36.1712 14.5137C36.1796 14.5208 36.1866 14.5297 36.1916 14.5396C36.1967 14.5496 36.1998 14.5605 36.2007 14.5718C36.2727 14.9823 36.3078 15.3989 36.3055 15.8162C36.2942 16.2101 36.2424 16.6017 36.151 16.9842C36.151 17.0167 36.1179 17.032 36.0737 17.032C36.0385 17.0319 36.004 17.0213 35.9744 17.0014C35.9601 16.9926 35.9483 16.98 35.9402 16.9648C35.9321 16.9497 35.928 16.9327 35.9284 16.9154C35.9271 16.8937 35.9271 16.872 35.9284 16.8504C35.9615 16.6841 35.9965 16.4375 36.0351 16.1106H32.2434C32.1404 16.1106 32.0889 16.0131 32.0889 15.8143Z" fill="#39B54A"/>
      <path d="M32.0322 22.394C32.0322 22.3022 32.0561 22.2545 32.104 22.2487C32.4646 22.213 32.8245 22.1844 33.1839 22.1627C33.2351 21.8687 33.2627 21.5707 33.2667 21.2719C33.2661 21.0572 33.2526 20.8426 33.2262 20.6296H32.2144C32.1875 20.6285 32.1618 20.6184 32.1409 20.6008C32.12 20.5832 32.1051 20.5592 32.0985 20.5321C32.0723 20.4634 32.0592 20.3901 32.0598 20.3161C32.0592 20.2422 32.0723 20.1689 32.0985 20.1001C32.1242 20.0351 32.1628 20.0007 32.2144 20.0007H33.1342V19.93C33.1337 19.9149 33.1373 19.9 33.1444 19.8868C33.1515 19.8737 33.162 19.8628 33.1747 19.8555C33.2006 19.8386 33.2306 19.8299 33.2612 19.8306C33.3164 19.8306 33.3476 19.8535 33.3568 19.8994L33.3752 20.0026H36.03C36.0796 20.0026 36.1146 20.0351 36.1367 20.0982C36.1845 20.2392 36.1845 20.393 36.1367 20.5341C36.1128 20.5971 36.0796 20.6296 36.0355 20.6296H33.4599C33.4855 20.8427 33.4984 21.0572 33.4985 21.2719C33.4982 21.5648 33.4736 21.857 33.4249 22.1455C33.7929 22.1226 34.1424 22.1111 34.4736 22.1111C35.0691 22.115 35.6641 22.1501 36.2563 22.2162C36.3078 22.2162 36.3335 22.2697 36.3335 22.3615C36.3335 22.4533 36.3059 22.5163 36.2489 22.5163C36.2134 22.5185 36.1777 22.5185 36.1422 22.5163C35.5756 22.459 35.0108 22.4303 34.4441 22.4303C34.0063 22.4303 33.5236 22.4513 32.9963 22.4934C32.4682 22.5355 32.172 22.5565 32.1095 22.5565C32.0469 22.5565 32.0322 22.4972 32.0322 22.394Z" fill="#39B54A"/>
      <path d="M31.9806 26.3642C31.9786 26.2845 32.0026 26.2063 32.0487 26.1425C32.0669 26.1141 32.0915 26.0907 32.1203 26.0744C32.1492 26.0581 32.1814 26.0493 32.2143 26.0488H35.9784C35.9784 25.9513 36.0152 25.9036 36.0888 25.9036C36.1623 25.9036 36.1752 25.938 36.1991 26.0068C36.2652 26.2509 36.3077 26.5013 36.3261 26.7542C36.3478 26.9599 36.3589 27.1666 36.3592 27.3735C36.3533 27.6557 36.3181 27.9364 36.2543 28.2108C36.2396 28.2815 36.2047 28.316 36.1495 28.316H36.109C36.0822 28.3126 36.0575 28.299 36.0398 28.2778C36.0221 28.2566 36.0127 28.2293 36.0133 28.2013C36.0153 28.1568 36.0215 28.1126 36.0317 28.0694C36.0882 27.8425 36.1197 27.6097 36.1256 27.3755C36.1247 27.1415 36.1093 26.9078 36.0796 26.6758C36.0648 26.6758 35.681 26.6758 34.9279 26.6758C34.9563 26.904 34.971 27.1339 34.972 27.364C34.9746 27.7233 34.9225 28.0807 34.8175 28.423C34.8065 28.4593 34.7899 28.4765 34.7678 28.4765C34.7232 28.4802 34.6787 28.4688 34.6409 28.444C34.6298 28.4371 34.6204 28.4277 34.6134 28.4164C34.6064 28.4051 34.6019 28.3924 34.6004 28.379C34.6028 28.3509 34.609 28.3232 34.6188 28.2968C34.6298 28.2567 34.6464 28.1955 34.6648 28.1057C34.7146 27.8586 34.7393 27.6068 34.7384 27.3544C34.7379 27.1255 34.7225 26.8969 34.6924 26.6701H32.4111C32.4394 26.8964 32.4541 27.1243 32.4553 27.3525C32.4614 27.6256 32.4398 27.8985 32.3909 28.1668C32.3486 28.358 32.3026 28.4574 32.2584 28.4574C32.1499 28.4574 32.0965 28.4306 32.0965 28.3752C32.1008 28.3405 32.1069 28.306 32.1149 28.272C32.1278 28.2165 32.1425 28.1382 32.1609 28.035C32.1994 27.8109 32.2197 27.5839 32.2216 27.3563C32.2202 27.1262 32.2048 26.8963 32.1756 26.6682C32.1176 26.6521 32.0681 26.613 32.0377 26.5592C31.9985 26.5025 31.9785 26.434 31.9806 26.3642Z" fill="#39B54A"/>
      <path d="M22.2482 29.245C21.0352 29.245 20.4293 28.8932 20.4305 28.1898V1.98232C19.0675 2.03572 17.7106 2.19934 16.372 2.47167C16.0924 2.52339 15.8096 2.55469 15.5257 2.56534C15.4443 2.56194 15.3656 2.53439 15.2987 2.48595C15.2319 2.43751 15.1798 2.3702 15.1486 2.29199C15.0529 2.10358 15.0042 1.89328 15.0069 1.68029C15.0069 1.32856 15.1486 1.12211 15.4301 1.05903C17.676 0.567687 19.966 0.327375 22.261 0.342199C23.9315 0.342199 26.0675 0.693926 28.6688 1.39738C28.8528 1.44708 28.9356 1.62294 28.9356 1.92497C28.9361 2.16299 28.8764 2.39698 28.7627 2.60357C28.7217 2.69769 28.6558 2.77781 28.5728 2.83465C28.4898 2.89148 28.3929 2.92271 28.2935 2.92471C28.1691 2.92116 28.0455 2.9019 27.9256 2.86737C27.0168 2.6418 25.6645 2.39712 23.869 2.13333V28.1898C23.869 28.8951 23.3262 29.245 22.2408 29.245" fill="#2C3233"/>
      <path d="M2.32577 29.9999C1.93756 30.0045 1.55375 29.9141 1.20537 29.7361C1.0481 29.6649 0.915249 29.5459 0.824292 29.3947C0.733336 29.2436 0.688528 29.0674 0.695761 28.8893V3.03735C0.558209 3.01501 0.428412 2.95659 0.318639 2.86762C0.208865 2.77865 0.122742 2.66206 0.0684105 2.52887C0.0275442 2.43382 0.00623873 2.33095 0.00585938 2.22685C0.00697328 2.12141 0.034219 2.01805 0.0849682 1.92673C0.135376 1.82756 0.204283 1.7398 0.28767 1.66858C0.371058 1.59737 0.467257 1.54411 0.570659 1.51192C3.42225 0.50899 5.89793 0.00688961 7.99768 0.00561523C10.9633 0.00561523 13.1618 1.11113 14.5931 3.32217C15.8196 5.21843 16.4329 7.64293 16.4329 10.5956C16.4329 16.2972 14.668 19.9648 11.1381 21.5986C10.0036 22.1196 8.77434 22.3804 7.53407 22.3632C6.37621 22.3452 5.22853 22.1355 4.13423 21.7419V28.8835C4.13463 29.0578 4.0854 29.2282 3.99276 29.3735C3.90011 29.5187 3.76819 29.6323 3.61359 29.6998C3.21061 29.8962 2.77091 29.9981 2.32577 29.998M7.54327 20.746C9.60009 20.746 11.2871 19.9546 12.6044 18.3719C14.0136 16.6629 14.7189 14.0944 14.7201 10.6664C14.7201 7.95196 14.1927 5.78553 13.1379 4.16708C12.0341 2.47089 10.3366 1.62279 8.04552 1.62279C6.73201 1.65168 5.42493 1.82209 4.14527 2.13127V20.012C5.22272 20.4791 6.37592 20.7289 7.54327 20.7479" fill="#2C3233"/>
    </g>
    <defs>
      <clipPath id="clip0_1700_1793">
        <rect width="90" height="30" fill="white"/>
      </clipPath>
    </defs>
  </svg>